<svg width="55" height="55" viewBox="0 0 55 55" fill="none" xmlns="http://www.w3.org/2000/svg">
<circle cx="27.5" cy="27.5" r="26" stroke="#818181" stroke-width="3"/>
<path d="M28.0446 27.4804L28.0447 27.4144L28.0449 27.3489L28.045 27.2839L28.0452 27.2195L28.0453 27.1555L28.0454 27.092L28.0456 27.0291L28.0457 26.9666L28.0458 26.9047L28.046 26.8432L28.0461 26.7822L28.0462 26.7218L28.0464 26.6618L28.0465 26.6023L28.0466 26.5433L28.0468 26.4847L28.0469 26.4267L28.047 26.3691L28.0471 26.312L28.0473 26.2553L28.0474 26.1992L28.0475 26.1435L28.0476 26.0882L28.0477 26.0335L28.0479 25.9792L28.048 25.9253L28.0481 25.8719L28.0482 25.8189L28.0483 25.7664L28.0484 25.7144L28.0485 25.6628L28.0487 25.6116L28.0488 25.5609L28.0489 25.5106L28.049 25.4607L28.0491 25.4113L28.0492 25.3623L28.0493 25.3138L28.0494 25.2656L28.0495 25.2179L28.0496 25.1706L28.0497 25.1237L28.0498 25.0773L28.0499 25.0312L28.05 24.9856L28.0501 24.9404L28.0502 24.8955L28.0503 24.8511L28.0504 24.8071L28.0505 24.7635L28.0506 24.7202L28.0507 24.6774L28.0508 24.635L28.0509 24.5929L28.051 24.5513L28.0511 24.51L28.0511 24.4691L28.0512 24.4286L28.0513 24.3884L28.0514 24.3486L28.0515 24.3092L28.0516 24.2702L28.0517 24.2316L28.0517 24.1933L28.0518 24.1553L28.0519 24.1178L28.052 24.0805L28.0521 24.0437L28.0522 24.0072L28.0522 23.971L28.0523 23.9352L28.0524 23.8997L28.0525 23.8646L28.0525 23.8298L28.0526 23.7954L28.0527 23.7612L28.0528 23.7275L28.0528 23.694L28.0529 23.6609L28.053 23.6281L28.053 23.5956L28.0531 23.5635L28.0532 23.5316L28.0533 23.5001L28.0533 23.4689L28.0534 23.438L28.0535 23.4074L28.0535 23.3772L28.0536 23.3472L28.0537 23.3175L28.0537 23.2881L28.0538 23.2591L28.0538 23.2303L28.0539 23.2018L28.054 23.1736L28.054 23.1457L28.0541 23.118L28.0541 23.0907L28.0542 23.0636L28.0543 23.0368L28.0543 23.0103L28.0544 22.984L28.0544 22.9581L28.0545 22.9324L28.0545 22.9069L28.0546 22.8817L28.0547 22.8568L28.0547 22.8321L28.0548 22.8077L28.0548 22.7836L28.0549 22.7597L28.0549 22.736L28.055 22.7126L28.055 22.6894L28.0551 22.6665L28.0551 22.6438L28.0552 22.6213L28.0552 22.5991L28.0553 22.5771L28.0553 22.5553L28.0554 22.5338L28.0554 22.5125L28.0555 22.4914L28.0555 22.4705L28.0555 22.4498L28.0556 22.4294L28.0556 22.4091L28.0557 22.3891L28.0557 22.3693L28.0558 22.3497L28.0558 22.3303L28.0558 22.311L28.0559 22.292L28.0559 22.2732L28.056 22.2546L28.056 22.2361L28.056 22.2179L28.0561 22.1998L28.0561 22.1819L28.0562 22.1642L28.0562 22.1466L28.0562 22.1293L28.0563 22.1121L28.0563 22.0951L28.0564 22.0782L28.0564 22.0615L28.0564 22.045L28.0565 22.0287L28.0565 22.0125L28.0565 21.9964L28.0566 21.9805L28.0566 21.9648L28.0566 21.9492L28.0567 21.9337L28.0567 21.9184L28.0567 21.9032L28.0568 21.8882L28.0568 21.8733L28.0568 21.8585L28.0569 21.8439L28.0569 21.8294L28.0569 21.815L28.057 21.8008L28.057 21.7867L28.057 21.7726L28.057 21.7588L28.0571 21.745L28.0571 21.7313L28.0571 21.7177L28.0572 21.7043L28.0572 21.6909L28.0572 21.6777L28.0573 21.6645L28.0573 21.6515L28.0573 21.6385L28.0573 21.6257L28.0574 21.6129L28.0574 21.6002L28.0574 21.5876L28.0574 21.5751L28.0575 21.5626L28.0575 21.5503L28.0575 21.538L28.0576 21.5258L28.0576 21.5136L28.0576 21.5016L28.0576 21.4895L28.0577 21.4776L28.0577 21.4657L28.0577 21.4539L28.0577 21.4421L28.0578 21.4304L28.0578 21.4187L28.0578 21.4071L28.0578 21.3955L28.0579 21.384L28.0579 21.3725L28.0579 21.361L28.0579 21.3496L28.058 21.3382L28.058 21.3269L28.058 21.3155L28.058 21.3042L28.0581 21.293L28.0581 21.2817L28.0581 21.2705L28.0581 21.2593L28.0582 21.2481L28.0582 21.2369L28.0582 21.2257L28.0582 21.2145L28.0583 21.2034L28.0583 21.1922L28.0583 21.181L28.0583 21.1698L28.0584 21.1587L28.0584 21.1475L28.0584 21.1363L28.0584 21.1251L28.0585 21.1139L28.0585 21.1026L28.0585 21.0914L28.0585 21.0801L28.0586 21.0688L28.0586 21.0575L28.0586 21.0461L28.0586 21.0347L28.0587 21.0233L28.0587 21.0118L28.0587 21.0003L28.0587 20.9888L28.0588 20.9772L28.0588 20.9655L28.0588 20.9538L28.0588 20.9421L28.0589 20.9303L28.0589 20.9185L28.0589 20.9066L28.0589 20.8946L28.059 20.8826L28.059 20.8705L28.059 20.8583L28.059 20.8461L28.0591 20.8338L28.0591 20.8214L28.0591 20.8089L28.0591 20.7964L28.0592 20.7837L28.0592 20.771L28.0592 20.7582L28.0593 20.7453L28.0593 20.7324L28.0593 20.7193L28.0593 20.7061L28.0594 20.6928L28.0594 20.6795L28.0594 20.666L28.0595 20.6524L28.0595 20.6387L28.0595 20.6249L28.0595 20.6109L28.0596 20.5969L28.0596 20.5827L28.0596 20.5684L28.0597 20.554L28.0597 20.5395L28.0597 20.5248L28.0598 20.51L28.0598 20.4951L28.0598 20.48L28.0599 20.4648L28.0599 20.4495L28.0599 20.434L28.06 20.4184L28.06 20.4026L28.06 20.3866L28.0601 20.3705L28.0601 20.3543L28.0601 20.3379L28.0602 20.3213L28.0602 20.3046L28.0603 20.2877L28.0603 20.2706L28.0603 20.2534L28.0604 20.236L28.0604 20.2184L28.0604 20.2006L28.0605 20.1827L28.0605 20.1646L28.0606 20.1462L28.0606 20.1277L28.0606 20.1091L28.0607 20.0902L28.0607 20.0711L28.0608 20.0518L28.0608 20.0324L28.0609 20.0127L28.0609 19.9928L28.0609 19.9727L28.061 19.9524L28.061 19.9319L28.0611 19.9112L28.0611 19.8903L28.0612 19.8691L28.0612 19.8477L28.0613 19.8261L28.0613 19.8043L28.0614 19.7822L28.0614 19.7599L28.0615 19.7374L28.0615 19.7146L28.0616 19.6917L28.0616 19.6684L28.0617 19.6449L28.0617 19.6212L28.0618 19.5972L28.0618 19.573L28.0619 19.5485L28.0619 19.5238L28.062 19.4988L28.062 19.4735L28.0621 19.448L28.0621 19.4222L28.0622 19.3962L28.0623 19.3698L28.0623 19.3432L28.0624 19.3164L28.0624 19.2892L28.0625 19.2618L28.0625 19.2341L28.0626 19.2061L28.0627 19.1778L28.0627 19.1492L28.0628 19.1203L28.0629 19.0912L28.0629 19.0617L28.063 19.032L28.0631 19.0019L28.0631 18.9715L28.0632 18.9409L28.0633 18.9099L28.0633 18.8786L28.0634 18.847L28.0635 18.8151L28.0635 18.7828L28.0636 18.7503L28.0637 18.7174L28.0637 18.6842L28.0638 18.6506L28.0639 18.6168L28.064 18.5826L28.064 18.548L28.0641 18.5131L28.0642 18.4779L28.0643 18.4424L28.0644 18.4064L28.0644 18.3702L28.0645 18.3336L28.0646 18.2966L28.0647 18.2593L28.0648 18.2216L28.0648 18.1836L28.0649 18.1452L28.065 18.1064L28.0651 18.0673L28.0652 18.0278L28.0653 17.9879L28.0654 17.9477L28.0654 17.907L28.0655 17.866L28.0656 17.8246L28.0657 17.7829L28.0658 17.7407L28.0659 17.6982L28.066 17.6552L28.0661 17.6119L28.0662 17.5682L28.0663 17.524L28.0664 17.4795L28.0665 17.4346L28.0666 17.3892L28.0667 17.3435L28.0668 17.2973L28.0669 17.2507L28.067 17.2037L28.0671 17.1563L28.0672 17.1085L28.0673 17.0602L28.0674 17.0115L28.0675 16.9624L28.0676 16.9129L28.0677 16.8629L28.0678 16.8125L28.0679 16.7617L28.068 16.7104L28.0682 16.6586L28.0683 16.6065L28.0684 16.5538L28.0685 16.5007L28.0686 16.4472L28.0687 16.3932L28.0689 16.3388L28.069 16.2839L28.0691 16.2285L28.0692 16.1727L28.0693 16.1164L28.0695 16.0596L28.0696 16.0024L28.0697 15.9447L28.0698 15.8865L28.07 15.8278L28.0701 15.7687L28.0702 15.709L28.0704 15.6489L28.0705 15.5883L28.0706 15.5272L28.0708 15.4656L28.0709 15.4035L28.071 15.3409L28.0712 15.2778L28.0713 15.2142L28.0714 15.1501L28.0716 15.0855L28.0717 15.0204L28.0719 14.9547L28.072 14.8886L28.0722 14.8219L28.0723 14.7547L28.0725 14.687L28.0726 14.6188L28.0728 14.55L28.0729 14.4807L28.0731 14.4109L28.0732 14.3405L28.0734 14.2696L28.0735 14.1981L28.0737 14.1261L28.0738 14.0536L28.074 13.9805L28.0742 13.9069L28.0743 13.8327L28.0745 13.758L28.0746 13.6827L28.0748 13.6068L28.075 13.5304L28.0751 13.4534L28.0753 13.3758L28.0755 13.2977L28.0757 13.219L28.0758 13.1398L28.076 13.0599L28.0762 12.9795L28.0763 12.8985L28.0765 12.8169L28.0767 12.7347L28.0769 12.652L28.0771 12.5686L28.0773 12.4847L28.0774 12.4001L28.0776 12.315L28.0778 12.2292L28.078 12.1429L28.0782 12.0559L28.0784 11.9684L28.0786 11.8802L28.0788 11.7914L28.079 11.702L28.0792 11.612L28.0793 11.5213L28.0795 11.4301L28.0797 11.3382L28.0799 11.2457L28.0802 11.1525L28.0804 11.0587L28.0806 10.9643L28.0808 10.8693L28.081 10.7736L28.0812 10.6772L28.0814 10.5803L28.0816 10.4826L28.0818 10.3844L28.082 10.2854L28.0823 10.1858L28.0825 10.0856L28.0827 9.98469L28.0829 9.88313L28.0831 9.7809L28.0834 9.67801L28.0836 9.57444L28.0838 9.47021L28.084 9.3653L28.0843 9.25972L28.0845 9.15345L28.0847 9.04651L28.085 8.93887L28.0852 8.83056L28.0854 8.72156L28.0857 8.61186L28.0859 8.50147L28.0862 8.39039L28.0864 8.2786L28.0867 8.16612L28.0869 8.05293L28.087 8.02767C38.3233 8.57283 46.4524 17.0959 46.4297 27.5205C46.407 37.945 38.2409 46.4326 28.0022 46.9332L28.0023 46.9079L28.0025 46.7947L28.0028 46.6822L28.003 46.5704L28.0032 46.4594L28.0035 46.349L28.0037 46.2393L28.004 46.1303L28.0042 46.0219L28.0044 45.9143L28.0047 45.8074L28.0049 45.7011L28.0051 45.5955L28.0054 45.4906L28.0056 45.3864L28.0058 45.2828L28.006 45.1799L28.0063 45.0777L28.0065 44.9761L28.0067 44.8752L28.0069 44.775L28.0071 44.6754L28.0073 44.5765L28.0076 44.4782L28.0078 44.3806L28.008 44.2836L28.0082 44.1872L28.0084 44.0916L28.0086 43.9965L28.0088 43.9021L28.009 43.8083L28.0092 43.7152L28.0094 43.6226L28.0096 43.5308L28.0098 43.4395L28.01 43.3488L28.0102 43.2588L28.0104 43.1694L28.0106 43.0806L28.0108 42.9925L28.011 42.9049L28.0112 42.8179L28.0114 42.7316L28.0115 42.6458L28.0117 42.5607L28.0119 42.4762L28.0121 42.3922L28.0123 42.3089L28.0125 42.2261L28.0126 42.1439L28.0128 42.0623L28.013 41.9813L28.0132 41.9009L28.0133 41.8211L28.0135 41.7418L28.0137 41.6631L28.0139 41.585L28.014 41.5074L28.0142 41.4304L28.0144 41.354L28.0145 41.2782L28.0147 41.2029L28.0149 41.1281L28.015 41.0539L28.0152 40.9803L28.0153 40.9072L28.0155 40.8347L28.0157 40.7627L28.0158 40.6912L28.016 40.6203L28.0161 40.55L28.0163 40.4801L28.0164 40.4108L28.0166 40.3421L28.0167 40.2738L28.0169 40.2061L28.017 40.1389L28.0172 40.0722L28.0173 40.0061L28.0174 39.9405L28.0176 39.8753L28.0177 39.8107L28.0179 39.7466L28.018 39.683L28.0181 39.6199L28.0183 39.5573L28.0184 39.4952L28.0185 39.4336L28.0187 39.3725L28.0188 39.3119L28.0189 39.2518L28.0191 39.1922L28.0192 39.133L28.0193 39.0743L28.0195 39.0161L28.0196 38.9584L28.0197 38.9012L28.0198 38.8444L28.02 38.7881L28.0201 38.7323L28.0202 38.6769L28.0203 38.622L28.0204 38.5676L28.0206 38.5136L28.0207 38.4601L28.0208 38.407L28.0209 38.3544L28.021 38.3022L28.0211 38.2505L28.0212 38.1992L28.0213 38.1483L28.0215 38.0979L28.0216 38.0479L28.0217 37.9984L28.0218 37.9493L28.0219 37.9006L28.022 37.8523L28.0221 37.8045L28.0222 37.7571L28.0223 37.7101L28.0224 37.6635L28.0225 37.6174L28.0226 37.5716L28.0227 37.5263L28.0228 37.4813L28.0229 37.4368L28.023 37.3927L28.0231 37.3489L28.0232 37.3056L28.0233 37.2627L28.0234 37.2201L28.0235 37.1779L28.0236 37.1362L28.0236 37.0948L28.0237 37.0538L28.0238 37.0132L28.0239 36.9729L28.024 36.933L28.0241 36.8935L28.0242 36.8544L28.0242 36.8156L28.0243 36.7772L28.0244 36.7392L28.0245 36.7015L28.0246 36.6642L28.0247 36.6273L28.0247 36.5906L28.0248 36.5544L28.0249 36.5185L28.025 36.4829L28.0251 36.4477L28.0251 36.4128L28.0252 36.3783L28.0253 36.3441L28.0254 36.3102L28.0254 36.2766L28.0255 36.2434L28.0256 36.2105L28.0256 36.178L28.0257 36.1457L28.0258 36.1138L28.0258 36.0822L28.0259 36.0509L28.026 36.0199L28.026 35.9893L28.0261 35.9589L28.0262 35.9289L28.0262 35.8991L28.0263 35.8696L28.0264 35.8405L28.0264 35.8116L28.0265 35.783L28.0266 35.7548L28.0266 35.7268L28.0267 35.699L28.0267 35.6716L28.0268 35.6445L28.0269 35.6176L28.0269 35.591L28.027 35.5647L28.027 35.5386L28.0271 35.5128L28.0271 35.4873L28.0272 35.4621L28.0273 35.4371L28.0273 35.4123L28.0274 35.3878L28.0274 35.3636L28.0275 35.3396L28.0275 35.3159L28.0276 35.2924L28.0276 35.2692L28.0277 35.2462L28.0277 35.2234L28.0278 35.2009L28.0278 35.1786L28.0279 35.1565L28.0279 35.1347L28.028 35.1131L28.028 35.0917L28.0281 35.0706L28.0281 35.0496L28.0281 35.0289L28.0282 35.0084L28.0282 34.9881L28.0283 34.968L28.0283 34.9481L28.0284 34.9285L28.0284 34.909L28.0284 34.8897L28.0285 34.8706L28.0285 34.8518L28.0286 34.8331L28.0286 34.8146L28.0286 34.7963L28.0287 34.7781L28.0287 34.7602L28.0288 34.7424L28.0288 34.7249L28.0288 34.7074L28.0289 34.6902L28.0289 34.6731L28.029 34.6562L28.029 34.6395L28.029 34.6229L28.0291 34.6065L28.0291 34.5903L28.0291 34.5742L28.0292 34.5583L28.0292 34.5425L28.0292 34.5268L28.0293 34.5113L28.0293 34.496L28.0293 34.4808L28.0294 34.4657L28.0294 34.4508L28.0294 34.436L28.0295 34.4213L28.0295 34.4068L28.0295 34.3924L28.0296 34.3781L28.0296 34.3639L28.0296 34.3499L28.0297 34.336L28.0297 34.3221L28.0297 34.3084L28.0297 34.2948L28.0298 34.2814L28.0298 34.268L28.0298 34.2547L28.0299 34.2415L28.0299 34.2285L28.0299 34.2155L28.0299 34.2026L28.03 34.1898L28.03 34.1771L28.03 34.1644L28.0301 34.1519L28.0301 34.1394L28.0301 34.1271L28.0301 34.1147L28.0302 34.1025L28.0302 34.0903L28.0302 34.0783L28.0302 34.0662L28.0303 34.0543L28.0303 34.0423L28.0303 34.0305L28.0303 34.0187L28.0304 34.007L28.0304 33.9953L28.0304 33.9837L28.0304 33.9721L28.0305 33.9605L28.0305 33.949L28.0305 33.9375L28.0305 33.9261L28.0306 33.9147L28.0306 33.9034L28.0306 33.892L28.0306 33.8807L28.0307 33.8694L28.0307 33.8582L28.0307 33.847L28.0307 33.8357L28.0308 33.8245L28.0308 33.8133L28.0308 33.8022L28.0308 33.791L28.0309 33.7798L28.0309 33.7686L28.0309 33.7575L28.0309 33.7463L28.031 33.7351L28.031 33.7239L28.031 33.7128L28.031 33.7016L28.0311 33.6903L28.0311 33.6791L28.0311 33.6679L28.0311 33.6566L28.0312 33.6453L28.0312 33.634L28.0312 33.6226L28.0312 33.6112L28.0313 33.5998L28.0313 33.5883L28.0313 33.5769L28.0313 33.5653L28.0314 33.5537L28.0314 33.5421L28.0314 33.5304L28.0314 33.5187L28.0315 33.5069L28.0315 33.4951L28.0315 33.4832L28.0315 33.4713L28.0316 33.4593L28.0316 33.4472L28.0316 33.435L28.0316 33.4228L28.0317 33.4105L28.0317 33.3982L28.0317 33.3857L28.0317 33.3732L28.0318 33.3606L28.0318 33.3479L28.0318 33.3352L28.0319 33.3223L28.0319 33.3093L28.0319 33.2963L28.0319 33.2831L28.032 33.2699L28.032 33.2565L28.032 33.2431L28.0321 33.2295L28.0321 33.2158L28.0321 33.2021L28.0322 33.1882L28.0322 33.1742L28.0322 33.16L28.0322 33.1458L28.0323 33.1314L28.0323 33.1169L28.0323 33.1023L28.0324 33.0875L28.0324 33.0726L28.0324 33.0576L28.0325 33.0424L28.0325 33.0271L28.0325 33.0117L28.0326 32.9961L28.0326 32.9803L28.0326 32.9644L28.0327 32.9484L28.0327 32.9322L28.0327 32.9158L28.0328 32.8993L28.0328 32.8826L28.0329 32.8657L28.0329 32.8487L28.0329 32.8315L28.033 32.8142L28.033 32.7966L28.033 32.7789L28.0331 32.761L28.0331 32.743L28.0332 32.7247L28.0332 32.7063L28.0332 32.6876L28.0333 32.6688L28.0333 32.6498L28.0334 32.6306L28.0334 32.6111L28.0335 32.5915L28.0335 32.5717L28.0335 32.5517L28.0336 32.5314L28.0336 32.511L28.0337 32.4903L28.0337 32.4695L28.0338 32.4484L28.0338 32.427L28.0339 32.4055L28.0339 32.3837L28.034 32.3617L28.034 32.3395L28.034 32.3171L28.0341 32.2944L28.0341 32.2714L28.0342 32.2483L28.0342 32.2248L28.0343 32.2012L28.0344 32.1773L28.0344 32.1531L28.0345 32.1287L28.0345 32.104L28.0346 32.0791L28.0346 32.0539L28.0347 32.0285L28.0347 32.0028L28.0348 31.9768L28.0348 31.9505L28.0349 31.924L28.035 31.8972L28.035 31.8701L28.0351 31.8428L28.0351 31.8152L28.0352 31.7872L28.0353 31.759L28.0353 31.7305L28.0354 31.7018L28.0355 31.6727L28.0355 31.6433L28.0356 31.6136L28.0356 31.5837L28.0357 31.5534L28.0358 31.5228L28.0358 31.4919L28.0359 31.4607L28.036 31.4292L28.0361 31.3973L28.0361 31.3652L28.0362 31.3327L28.0363 31.2999L28.0363 31.2668L28.0364 31.2334L28.0365 31.1996L28.0366 31.1655L28.0366 31.131L28.0367 31.0962L28.0368 31.0611L28.0369 31.0256L28.0369 30.9898L28.037 30.9537L28.0371 30.9171L28.0372 30.8803L28.0373 30.8431L28.0373 30.8055L28.0374 30.7676L28.0375 30.7293L28.0376 30.6906L28.0377 30.6516L28.0378 30.6122L28.0378 30.5724L28.0379 30.5323L28.038 30.4917L28.0381 30.4508L28.0382 30.4096L28.0383 30.3679L28.0384 30.3258L28.0385 30.2834L28.0386 30.2406L28.0387 30.1974L28.0388 30.1537L28.0389 30.1097L28.039 30.0653L28.0391 30.0205L28.0392 29.9752L28.0392 29.9296L28.0393 29.8835L28.0395 29.8371L28.0396 29.7902L28.0397 29.7429L28.0398 29.6952L28.0399 29.6471L28.04 29.5985L28.0401 29.5495L28.0402 29.5001L28.0403 29.4502L28.0404 29.3999L28.0405 29.3492L28.0406 29.298L28.0407 29.2464L28.0409 29.1944L28.041 29.1419L28.0411 29.0889L28.0412 29.0355L28.0413 28.9817L28.0414 28.9274L28.0416 28.8726L28.0417 28.8173L28.0418 28.7616L28.0419 28.7055L28.042 28.6488L28.0422 28.5917L28.0423 28.5342L28.0424 28.4761L28.0425 28.4176L28.0427 28.3585L28.0428 28.299L28.0429 28.2391L28.0431 28.1786L28.0432 28.1176L28.0433 28.0562L28.0435 27.9942L28.0436 27.9317L28.0437 27.8688L28.0439 27.8053L28.044 27.7414L28.0442 27.6769L28.0443 27.6119L28.0444 27.5464L28.0446 27.4804Z" fill="#818181" stroke="#818181" stroke-width="2"/>
</svg>
