<svg width="55" height="55" viewBox="0 0 55 55" fill="none" xmlns="http://www.w3.org/2000/svg">
<circle cx="27.5" cy="27.5" r="26" stroke="#818181" stroke-width="3"/>
<path d="M28.0501 27.0215L28.0503 26.9473L28.0505 26.8737L28.0506 26.8006L28.0508 26.7281L28.0509 26.6562L28.0511 26.5849L28.0512 26.5141L28.0514 26.4439L28.0515 26.3743L28.0517 26.3052L28.0518 26.2367L28.052 26.1687L28.0521 26.1013L28.0523 26.0344L28.0524 25.968L28.0526 25.9022L28.0527 25.837L28.0529 25.7723L28.053 25.7081L28.0531 25.6444L28.0533 25.5813L28.0534 25.5187L28.0535 25.4566L28.0537 25.395L28.0538 25.3339L28.0539 25.2734L28.0541 25.2134L28.0542 25.1538L28.0543 25.0948L28.0545 25.0363L28.0546 24.9783L28.0547 24.9208L28.0548 24.8638L28.055 24.8072L28.0551 24.7512L28.0552 24.6956L28.0553 24.6406L28.0554 24.586L28.0556 24.5319L28.0557 24.4782L28.0558 24.4251L28.0559 24.3724L28.056 24.3201L28.0561 24.2684L28.0562 24.2171L28.0564 24.1662L28.0565 24.1159L28.0566 24.0659L28.0567 24.0164L28.0568 23.9674L28.0569 23.9188L28.057 23.8707L28.0571 23.823L28.0572 23.7757L28.0573 23.7289L28.0574 23.6825L28.0575 23.6365L28.0576 23.5909L28.0577 23.5458L28.0578 23.5011L28.0579 23.4568L28.058 23.4129L28.0581 23.3695L28.0582 23.3264L28.0583 23.2838L28.0584 23.2416L28.0585 23.1997L28.0586 23.1583L28.0586 23.1172L28.0587 23.0766L28.0588 23.0363L28.0589 22.9965L28.059 22.957L28.0591 22.9179L28.0592 22.8792L28.0592 22.8408L28.0593 22.8028L28.0594 22.7652L28.0595 22.728L28.0596 22.6911L28.0597 22.6546L28.0597 22.6185L28.0598 22.5827L28.0599 22.5473L28.06 22.5122L28.06 22.4775L28.0601 22.4431L28.0602 22.4091L28.0603 22.3754L28.0603 22.342L28.0604 22.309L28.0605 22.2763L28.0605 22.244L28.0606 22.2119L28.0607 22.1802L28.0608 22.1488L28.0608 22.1178L28.0609 22.087L28.061 22.0566L28.061 22.0265L28.0611 21.9967L28.0611 21.9672L28.0612 21.938L28.0613 21.9091L28.0613 21.8805L28.0614 21.8522L28.0615 21.8241L28.0615 21.7964L28.0616 21.769L28.0616 21.7418L28.0617 21.7149L28.0618 21.6883L28.0618 21.662L28.0619 21.636L28.0619 21.6102L28.062 21.5847L28.062 21.5594L28.0621 21.5344L28.0621 21.5097L28.0622 21.4853L28.0623 21.461L28.0623 21.4371L28.0624 21.4134L28.0624 21.3899L28.0625 21.3667L28.0625 21.3437L28.0626 21.3209L28.0626 21.2984L28.0627 21.2761L28.0627 21.2541L28.0627 21.2323L28.0628 21.2107L28.0628 21.1893L28.0629 21.1681L28.0629 21.1472L28.063 21.1264L28.063 21.1059L28.0631 21.0856L28.0631 21.0655L28.0632 21.0456L28.0632 21.0259L28.0632 21.0063L28.0633 20.987L28.0633 20.9679L28.0634 20.949L28.0634 20.9302L28.0634 20.9116L28.0635 20.8932L28.0635 20.875L28.0636 20.857L28.0636 20.8391L28.0636 20.8214L28.0637 20.8039L28.0637 20.7865L28.0638 20.7693L28.0638 20.7522L28.0638 20.7354L28.0639 20.7186L28.0639 20.702L28.0639 20.6856L28.064 20.6693L28.064 20.6531L28.064 20.6371L28.0641 20.6212L28.0641 20.6055L28.0641 20.5898L28.0642 20.5743L28.0642 20.559L28.0642 20.5437L28.0643 20.5286L28.0643 20.5136L28.0643 20.4987L28.0644 20.4839L28.0644 20.4693L28.0644 20.4547L28.0645 20.4402L28.0645 20.4259L28.0645 20.4116L28.0646 20.3975L28.0646 20.3834L28.0646 20.3694L28.0647 20.3555L28.0647 20.3417L28.0647 20.328L28.0647 20.3143L28.0648 20.3007L28.0648 20.2872L28.0648 20.2738L28.0649 20.2604L28.0649 20.2471L28.0649 20.2339L28.065 20.2207L28.065 20.2076L28.065 20.1945L28.065 20.1815L28.0651 20.1685L28.0651 20.1556L28.0651 20.1428L28.0652 20.1299L28.0652 20.1171L28.0652 20.1044L28.0652 20.0916L28.0653 20.0789L28.0653 20.0663L28.0653 20.0536L28.0653 20.041L28.0654 20.0284L28.0654 20.0158L28.0654 20.0032L28.0655 19.9906L28.0655 19.9781L28.0655 19.9655L28.0655 19.953L28.0656 19.9404L28.0656 19.9279L28.0656 19.9153L28.0656 19.9027L28.0657 19.8901L28.0657 19.8775L28.0657 19.8649L28.0658 19.8523L28.0658 19.8396L28.0658 19.827L28.0658 19.8143L28.0659 19.8015L28.0659 19.7887L28.0659 19.7759L28.0659 19.7631L28.066 19.7502L28.066 19.7373L28.066 19.7243L28.0661 19.7113L28.0661 19.6982L28.0661 19.6851L28.0661 19.6719L28.0662 19.6586L28.0662 19.6453L28.0662 19.6319L28.0663 19.6185L28.0663 19.6049L28.0663 19.5913L28.0664 19.5777L28.0664 19.5639L28.0664 19.5501L28.0664 19.5362L28.0665 19.5221L28.0665 19.508L28.0665 19.4938L28.0666 19.4796L28.0666 19.4652L28.0666 19.4507L28.0667 19.4361L28.0667 19.4214L28.0667 19.4066L28.0668 19.3917L28.0668 19.3766L28.0668 19.3615L28.0669 19.3462L28.0669 19.3308L28.0669 19.3153L28.067 19.2996L28.067 19.2838L28.067 19.2679L28.0671 19.2518L28.0671 19.2356L28.0671 19.2193L28.0672 19.2028L28.0672 19.1862L28.0672 19.1694L28.0673 19.1525L28.0673 19.1354L28.0674 19.1181L28.0674 19.1007L28.0674 19.0831L28.0675 19.0654L28.0675 19.0474L28.0675 19.0294L28.0676 19.0111L28.0676 18.9926L28.0677 18.974L28.0677 18.9552L28.0678 18.9362L28.0678 18.917L28.0678 18.8977L28.0679 18.8781L28.0679 18.8583L28.068 18.8384L28.068 18.8182L28.0681 18.7978L28.0681 18.7772L28.0681 18.7565L28.0682 18.7354L28.0682 18.7142L28.0683 18.6928L28.0683 18.6711L28.0684 18.6492L28.0684 18.6271L28.0685 18.6048L28.0685 18.5822L28.0686 18.5594L28.0686 18.5363L28.0687 18.513L28.0687 18.4895L28.0688 18.4657L28.0688 18.4417L28.0689 18.4174L28.0689 18.3928L28.069 18.3681L28.069 18.343L28.0691 18.3177L28.0692 18.2921L28.0692 18.2662L28.0693 18.2401L28.0693 18.2137L28.0694 18.187L28.0694 18.1601L28.0695 18.1328L28.0696 18.1053L28.0696 18.0775L28.0697 18.0494L28.0697 18.021L28.0698 17.9923L28.0699 17.9634L28.0699 17.9341L28.07 17.9045L28.0701 17.8746L28.0701 17.8444L28.0702 17.8139L28.0703 17.783L28.0703 17.7519L28.0704 17.7204L28.0705 17.6886L28.0705 17.6565L28.0706 17.624L28.0707 17.5913L28.0708 17.5581L28.0708 17.5247L28.0709 17.4909L28.071 17.4568L28.071 17.4223L28.0711 17.3875L28.0712 17.3523L28.0713 17.3168L28.0714 17.2809L28.0714 17.2447L28.0715 17.208L28.0716 17.1711L28.0717 17.1337L28.0718 17.096L28.0718 17.058L28.0719 17.0195L28.072 16.9807L28.0721 16.9415L28.0722 16.9019L28.0723 16.8619L28.0724 16.8215L28.0724 16.7808L28.0725 16.7396L28.0726 16.6981L28.0727 16.6561L28.0728 16.6138L28.0729 16.571L28.073 16.5279L28.0731 16.4843L28.0732 16.4403L28.0733 16.3959L28.0734 16.3511L28.0735 16.3058L28.0736 16.2602L28.0737 16.2141L28.0738 16.1676L28.0739 16.1206L28.074 16.0732L28.0741 16.0254L28.0742 15.9771L28.0743 15.9284L28.0744 15.8792L28.0745 15.8296L28.0746 15.7796L28.0747 15.7291L28.0748 15.6781L28.075 15.6267L28.0751 15.5748L28.0752 15.5224L28.0753 15.4696L28.0754 15.4163L28.0755 15.3625L28.0757 15.3083L28.0758 15.2536L28.0759 15.1984L28.076 15.1427L28.0761 15.0865L28.0763 15.0298L28.0764 14.9727L28.0765 14.915L28.0766 14.8569L28.0768 14.7982L28.0769 14.739L28.077 14.6794L28.0772 14.6192L28.0773 14.5585L28.0774 14.4973L28.0776 14.4356L28.0777 14.3734L28.0778 14.3106L28.078 14.2473L28.0781 14.1835L28.0782 14.1192L28.0784 14.0543L28.0785 13.9889L28.0787 13.923L28.0788 13.8565L28.079 13.7894L28.0791 13.7218L28.0793 13.6537L28.0794 13.585L28.0796 13.5158L28.0797 13.446L28.0799 13.3756L28.08 13.3047L28.0802 13.2332L28.0803 13.1611L28.0805 13.0885L28.0806 13.0153L28.0808 12.9415L28.081 12.8672L28.0811 12.7922L28.0813 12.7167L28.0815 12.6406L28.0816 12.5639L28.0818 12.4866L28.082 12.4087L28.0821 12.3302L28.0823 12.2511L28.0825 12.1714L28.0827 12.091L28.0828 12.0101L28.083 11.9286L28.0832 11.8464L28.0834 11.7637L28.0836 11.6803L28.0837 11.5963L28.0839 11.5116L28.0841 11.4263L28.0843 11.3404L28.0845 11.2539L28.0847 11.1667L28.0849 11.0789L28.0851 10.9905L28.0853 10.9014L28.0854 10.8116L28.0856 10.7212L28.0858 10.6301L28.086 10.5384L28.0862 10.4461L28.0864 10.353L28.0867 10.2593L28.0869 10.165L28.0871 10.0699L28.0873 9.97421L28.0875 9.87783L28.0877 9.78076L28.0879 9.68302L28.0881 9.58459L28.0883 9.48548L28.0886 9.38567L28.0888 9.28517L28.089 9.18398L28.0892 9.08209L28.0894 8.97951L28.0897 8.87621L28.0899 8.77222L28.0901 8.66751L28.0903 8.56209L28.0906 8.45596L28.0908 8.34911L28.091 8.24154L28.0913 8.13325L28.0915 8.02424L28.0918 7.91449L28.092 7.80402L28.0922 7.69282L28.0925 7.58087L28.0927 7.4682L28.093 7.35477L28.0932 7.24061L28.0935 7.12569L28.0937 7.01003L28.094 6.89362L28.0942 6.77645L28.0945 6.65852L28.0948 6.53984L28.095 6.42038L28.0953 6.30017L28.0955 6.17919L28.0958 6.05743L28.0961 5.9349L28.0963 5.81159L28.0966 5.6875L28.0969 5.56263L28.0972 5.43698L28.0974 5.31054L28.0977 5.1833L28.098 5.05528L28.0981 5.02385C39.978 5.56561 49.4079 15.2495 49.3821 27.0679C49.3564 38.8864 39.8844 48.5291 28.0022 49.0191L28.0023 48.9877L28.0026 48.8597L28.0028 48.7324L28.0031 48.606L28.0034 48.4803L28.0037 48.3555L28.0039 48.2314L28.0042 48.1081L28.0045 47.9855L28.0047 47.8638L28.005 47.7428L28.0053 47.6226L28.0055 47.5031L28.0058 47.3844L28.006 47.2665L28.0063 47.1493L28.0065 47.0329L28.0068 46.9173L28.007 46.8024L28.0073 46.6882L28.0075 46.5748L28.0078 46.4621L28.008 46.3501L28.0083 46.2389L28.0085 46.1285L28.0088 46.0187L28.009 45.9097L28.0092 45.8014L28.0095 45.6938L28.0097 45.587L28.0099 45.4809L28.0102 45.3754L28.0104 45.2707L28.0106 45.1667L28.0108 45.0635L28.0111 44.9609L28.0113 44.859L28.0115 44.7578L28.0117 44.6573L28.0119 44.5575L28.0122 44.4584L28.0124 44.3599L28.0126 44.2622L28.0128 44.1651L28.013 44.0687L28.0132 43.973L28.0134 43.878L28.0136 43.7836L28.0138 43.6899L28.014 43.5969L28.0142 43.5045L28.0144 43.4128L28.0146 43.3218L28.0148 43.2314L28.015 43.1416L28.0152 43.0525L28.0154 42.964L28.0156 42.8762L28.0158 42.7891L28.016 42.7025L28.0162 42.6166L28.0164 42.5313L28.0165 42.4467L28.0167 42.3627L28.0169 42.2793L28.0171 42.1965L28.0173 42.1144L28.0174 42.0328L28.0176 41.9519L28.0178 41.8716L28.018 41.7919L28.0181 41.7128L28.0183 41.6343L28.0185 41.5564L28.0186 41.4791L28.0188 41.4024L28.019 41.3263L28.0191 41.2507L28.0193 41.1758L28.0195 41.1014L28.0196 41.0276L28.0198 40.9544L28.0199 40.8818L28.0201 40.8097L28.0203 40.7383L28.0204 40.6673L28.0206 40.597L28.0207 40.5272L28.0209 40.4579L28.021 40.3892L28.0212 40.3211L28.0213 40.2535L28.0215 40.1865L28.0216 40.12L28.0217 40.0541L28.0219 39.9886L28.022 39.9238L28.0222 39.8594L28.0223 39.7956L28.0224 39.7323L28.0226 39.6696L28.0227 39.6073L28.0229 39.5456L28.023 39.4844L28.0231 39.4237L28.0233 39.3636L28.0234 39.3039L28.0235 39.2448L28.0236 39.1861L28.0238 39.1279L28.0239 39.0703L28.024 39.0131L28.0241 38.9565L28.0243 38.9003L28.0244 38.8446L28.0245 38.7894L28.0246 38.7347L28.0247 38.6804L28.0249 38.6267L28.025 38.5734L28.0251 38.5205L28.0252 38.4682L28.0253 38.4163L28.0254 38.3649L28.0255 38.3139L28.0256 38.2634L28.0258 38.2133L28.0259 38.1637L28.026 38.1146L28.0261 38.0658L28.0262 38.0176L28.0263 37.9697L28.0264 37.9224L28.0265 37.8754L28.0266 37.8289L28.0267 37.7828L28.0268 37.7371L28.0269 37.6919L28.027 37.647L28.0271 37.6026L28.0272 37.5587L28.0273 37.5151L28.0274 37.4719L28.0275 37.4292L28.0276 37.3868L28.0277 37.3449L28.0277 37.3033L28.0278 37.2622L28.0279 37.2214L28.028 37.181L28.0281 37.1411L28.0282 37.1015L28.0283 37.0623L28.0284 37.0234L28.0284 36.985L28.0285 36.9469L28.0286 36.9092L28.0287 36.8719L28.0288 36.8349L28.0288 36.7983L28.0289 36.7621L28.029 36.7262L28.0291 36.6907L28.0292 36.6555L28.0292 36.6207L28.0293 36.5862L28.0294 36.552L28.0295 36.5183L28.0295 36.4848L28.0296 36.4517L28.0297 36.4189L28.0297 36.3865L28.0298 36.3543L28.0299 36.3226L28.0299 36.2911L28.03 36.2599L28.0301 36.2291L28.0301 36.1986L28.0302 36.1684L28.0303 36.1385L28.0303 36.1089L28.0304 36.0796L28.0305 36.0506L28.0305 36.0219L28.0306 35.9935L28.0307 35.9654L28.0307 35.9376L28.0308 35.9101L28.0308 35.8829L28.0309 35.8559L28.031 35.8292L28.031 35.8028L28.0311 35.7767L28.0311 35.7509L28.0312 35.7253L28.0312 35.7L28.0313 35.6749L28.0313 35.6501L28.0314 35.6256L28.0314 35.6013L28.0315 35.5773L28.0316 35.5535L28.0316 35.5299L28.0317 35.5066L28.0317 35.4836L28.0318 35.4608L28.0318 35.4382L28.0319 35.4158L28.0319 35.3937L28.0319 35.3718L28.032 35.3502L28.032 35.3287L28.0321 35.3075L28.0321 35.2865L28.0322 35.2657L28.0322 35.2451L28.0323 35.2248L28.0323 35.2046L28.0324 35.1846L28.0324 35.1649L28.0324 35.1453L28.0325 35.1259L28.0325 35.1067L28.0326 35.0877L28.0326 35.0689L28.0326 35.0503L28.0327 35.0319L28.0327 35.0136L28.0328 34.9955L28.0328 34.9776L28.0328 34.9598L28.0329 34.9423L28.0329 34.9249L28.033 34.9076L28.033 34.8905L28.033 34.8736L28.0331 34.8568L28.0331 34.8401L28.0331 34.8237L28.0332 34.8073L28.0332 34.7911L28.0332 34.7751L28.0333 34.7591L28.0333 34.7434L28.0334 34.7277L28.0334 34.7122L28.0334 34.6968L28.0335 34.6815L28.0335 34.6663L28.0335 34.6513L28.0336 34.6364L28.0336 34.6216L28.0336 34.6069L28.0336 34.5923L28.0337 34.5778L28.0337 34.5634L28.0337 34.5491L28.0338 34.5349L28.0338 34.5208L28.0338 34.5068L28.0339 34.4929L28.0339 34.479L28.0339 34.4653L28.034 34.4516L28.034 34.438L28.034 34.4245L28.034 34.411L28.0341 34.3977L28.0341 34.3843L28.0341 34.3711L28.0342 34.3579L28.0342 34.3448L28.0342 34.3317L28.0342 34.3187L28.0343 34.3057L28.0343 34.2927L28.0343 34.2799L28.0344 34.267L28.0344 34.2542L28.0344 34.2414L28.0344 34.2287L28.0345 34.216L28.0345 34.2033L28.0345 34.1907L28.0345 34.178L28.0346 34.1654L28.0346 34.1528L28.0346 34.1402L28.0347 34.1277L28.0347 34.1151L28.0347 34.1025L28.0347 34.09L28.0348 34.0774L28.0348 34.0649L28.0348 34.0523L28.0349 34.0398L28.0349 34.0272L28.0349 34.0146L28.0349 34.002L28.035 33.9893L28.035 33.9767L28.035 33.964L28.035 33.9513L28.0351 33.9386L28.0351 33.9258L28.0351 33.913L28.0352 33.9002L28.0352 33.8873L28.0352 33.8744L28.0352 33.8614L28.0353 33.8484L28.0353 33.8354L28.0353 33.8222L28.0354 33.8091L28.0354 33.7958L28.0354 33.7825L28.0354 33.7692L28.0355 33.7557L28.0355 33.7422L28.0355 33.7287L28.0356 33.715L28.0356 33.7013L28.0356 33.6875L28.0356 33.6736L28.0357 33.6596L28.0357 33.6455L28.0357 33.6313L28.0358 33.6171L28.0358 33.6027L28.0358 33.5883L28.0359 33.5737L28.0359 33.559L28.0359 33.5442L28.036 33.5293L28.036 33.5143L28.036 33.4992L28.0361 33.484L28.0361 33.4686L28.0361 33.4531L28.0362 33.4375L28.0362 33.4217L28.0362 33.4059L28.0363 33.3898L28.0363 33.3737L28.0363 33.3574L28.0364 33.3409L28.0364 33.3243L28.0364 33.3076L28.0365 33.2907L28.0365 33.2737L28.0366 33.2565L28.0366 33.2391L28.0366 33.2215L28.0367 33.2038L28.0367 33.186L28.0367 33.1679L28.0368 33.1497L28.0368 33.1313L28.0369 33.1128L28.0369 33.094L28.037 33.0751L28.037 33.0559L28.037 33.0366L28.0371 33.0171L28.0371 32.9974L28.0372 32.9775L28.0372 32.9574L28.0373 32.937L28.0373 32.9165L28.0373 32.8958L28.0374 32.8748L28.0374 32.8537L28.0375 32.8323L28.0375 32.8107L28.0376 32.7889L28.0376 32.7668L28.0377 32.7445L28.0377 32.722L28.0378 32.6993L28.0378 32.6763L28.0379 32.6531L28.0379 32.6296L28.038 32.6059L28.038 32.5819L28.0381 32.5577L28.0381 32.5332L28.0382 32.5085L28.0382 32.4835L28.0383 32.4583L28.0384 32.4328L28.0384 32.407L28.0385 32.3809L28.0385 32.3546L28.0386 32.328L28.0386 32.3011L28.0387 32.274L28.0388 32.2465L28.0388 32.2188L28.0389 32.1908L28.0389 32.1625L28.039 32.1339L28.0391 32.105L28.0391 32.0758L28.0392 32.0463L28.0393 32.0165L28.0393 31.9863L28.0394 31.9559L28.0395 31.9252L28.0395 31.8941L28.0396 31.8627L28.0397 31.831L28.0397 31.799L28.0398 31.7666L28.0399 31.734L28.0399 31.7009L28.04 31.6676L28.0401 31.6339L28.0402 31.5998L28.0402 31.5655L28.0403 31.5307L28.0404 31.4957L28.0405 31.4602L28.0405 31.4245L28.0406 31.3883L28.0407 31.3518L28.0408 31.3149L28.0409 31.2777L28.0409 31.2401L28.041 31.2021L28.0411 31.1638L28.0412 31.1251L28.0413 31.086L28.0414 31.0465L28.0415 31.0066L28.0415 30.9664L28.0416 30.9257L28.0417 30.8847L28.0418 30.8432L28.0419 30.8014L28.042 30.7592L28.0421 30.7165L28.0422 30.6735L28.0423 30.63L28.0424 30.5861L28.0425 30.5419L28.0426 30.4971L28.0427 30.452L28.0428 30.4065L28.0429 30.3605L28.043 30.3141L28.0431 30.2673L28.0432 30.22L28.0433 30.1723L28.0434 30.1241L28.0435 30.0756L28.0436 30.0265L28.0437 29.977L28.0438 29.9271L28.0439 29.8767L28.044 29.8259L28.0441 29.7746L28.0443 29.7228L28.0444 29.6706L28.0445 29.6179L28.0446 29.5647L28.0447 29.5111L28.0448 29.457L28.045 29.4024L28.0451 29.3473L28.0452 29.2918L28.0453 29.2357L28.0454 29.1792L28.0456 29.1222L28.0457 29.0647L28.0458 29.0066L28.0459 28.9481L28.0461 28.8891L28.0462 28.8296L28.0463 28.7696L28.0465 28.709L28.0466 28.648L28.0467 28.5864L28.0469 28.5243L28.047 28.4617L28.0471 28.3986L28.0473 28.3349L28.0474 28.2707L28.0476 28.206L28.0477 28.1407L28.0478 28.0749L28.048 28.0086L28.0481 27.9417L28.0483 27.8743L28.0484 27.8063L28.0486 27.7378L28.0487 27.6687L28.0489 27.599L28.049 27.5288L28.0492 27.4581L28.0493 27.3867L28.0495 27.3148L28.0497 27.2423L28.0498 27.1693L28.05 27.0957L28.0501 27.0215Z" fill="#818181" stroke="#818181" stroke-width="2"/>
</svg>
